<svg width="255" height="255" viewBox="0 0 512 217" fill="none" xmlns="http://www.w3.org/2000/svg">
<g clip-path="url(#clip0_526_24)">
<path d="M175.374 43.9898L107.371 3.61482C103.404 1.24871 98.8703 -0.000488281 94.251 -0.000488281C89.6317 -0.000488281 85.0983 1.24871 81.131 3.61482L13.114 43.9898C9.0921 46.416 5.76912 49.845 3.47034 53.941C1.17155 58.0371 -0.0242455 62.6599 -4.87419e-06 67.3568V148.092C-0.0218174 152.786 1.17514 157.406 3.4738 161.5C5.77247 165.593 9.09415 169.02 13.114 171.445L81.117 211.806C85.0848 214.171 89.618 215.419 94.237 215.419C98.856 215.419 103.389 214.171 107.357 211.806L175.361 171.446C179.385 169.021 182.711 165.593 185.012 161.496C187.313 157.4 188.511 152.776 188.488 148.078V67.3568C188.512 62.6599 187.316 58.0371 185.018 53.941C182.719 49.845 179.396 46.416 175.374 43.9898Z" fill="white"/>
<path d="M175.374 43.9898L107.371 3.61482C103.404 1.24871 98.8703 -0.000488281 94.251 -0.000488281C89.6317 -0.000488281 85.0983 1.24871 81.131 3.61482L13.114 43.9898C9.0921 46.416 5.76912 49.845 3.47034 53.941C1.17155 58.0371 -0.0242455 62.6599 -4.87419e-06 67.3568V148.092C-0.0218174 152.786 1.17514 157.406 3.4738 161.5C5.77247 165.593 9.09415 169.02 13.114 171.445L81.117 211.806C85.0848 214.171 89.618 215.419 94.237 215.419C98.856 215.419 103.389 214.171 107.357 211.806L175.361 171.446C179.385 169.021 182.711 165.593 185.012 161.496C187.313 157.4 188.511 152.776 188.488 148.078V67.3568C188.512 62.6599 187.316 58.0371 185.018 53.941C182.719 49.845 179.396 46.416 175.374 43.9898ZM83.5 207.68L15.497 167.32C12.1931 165.318 9.46343 162.495 7.57356 159.125C5.68368 155.756 4.69787 151.955 4.712 148.092V67.3568C4.6965 63.4934 5.68173 59.6918 7.57174 56.3222C9.46175 52.9526 12.1921 50.1298 15.497 48.1288L83.5 7.75482C86.7487 5.81665 90.4611 4.79335 94.244 4.79335C98.0269 4.79335 101.739 5.81665 104.988 7.75482L172.937 48.1288C175.704 49.8052 178.072 52.0651 179.876 54.751C181.68 57.437 182.875 60.4841 183.38 63.6798C181.12 58.8728 176.04 57.5518 170.117 60.9568L105.831 100.773C97.811 105.443 91.901 110.713 91.887 120.381V199.66C91.887 205.447 94.216 209.192 97.811 210.295C96.634 210.51 95.44 210.625 94.243 210.635C90.4617 210.632 86.7509 209.611 83.5 207.68Z" fill="#2F3A3E"/>
<path d="M157.55 155.895L140.61 166.025C140.388 166.114 140.196 166.266 140.059 166.462C139.921 166.658 139.843 166.89 139.834 167.129V171.581C139.834 172.126 140.202 172.344 140.651 172.085L157.849 161.627C158.27 161.312 158.472 160.781 158.367 160.266V156.357C158.353 155.854 157.958 155.636 157.55 155.895Z" fill="#3AB14A"/>
<path d="M121.492 118.597C122.036 118.325 122.486 118.597 122.499 119.374L122.554 125.284C124.591 124.358 126.864 124.082 129.063 124.494C129.485 124.603 129.662 125.174 129.499 125.855L128.205 131.043C128.107 131.435 127.905 131.793 127.619 132.078C127.519 132.178 127.404 132.26 127.279 132.323C127.125 132.406 126.947 132.435 126.775 132.405C124.631 131.93 122.386 132.291 120.498 133.413C119.145 134.022 117.992 135.001 117.17 136.236C116.349 137.472 115.892 138.914 115.854 140.398C115.854 143.122 117.216 143.871 121.968 143.952C128.246 144.062 130.969 146.798 131.038 153.13C130.964 156.395 130.18 159.605 128.741 162.538C127.302 165.47 125.242 168.054 122.704 170.11L122.813 175.912C122.808 176.266 122.715 176.614 122.541 176.923C122.368 177.232 122.119 177.493 121.819 177.682L118.387 179.656C117.842 179.929 117.393 179.656 117.379 178.894V173.188C114.439 174.414 111.456 174.7 109.549 173.938C109.196 173.801 109.032 173.27 109.182 172.658L110.422 167.415C110.515 166.999 110.728 166.621 111.034 166.325C111.131 166.232 111.241 166.155 111.361 166.094C111.449 166.054 111.544 166.034 111.64 166.034C111.736 166.034 111.831 166.054 111.919 166.094C114.346 166.752 116.936 166.423 119.122 165.181C120.67 164.434 121.985 163.278 122.924 161.838C123.862 160.398 124.389 158.729 124.447 157.011C124.447 154.07 122.827 152.844 119 152.817C114.057 152.817 109.468 151.864 109.373 144.647C109.429 141.533 110.174 138.47 111.554 135.678C112.933 132.885 114.914 130.433 117.353 128.497L117.107 122.56C117.106 122.2 117.197 121.847 117.371 121.532C117.545 121.218 117.796 120.953 118.101 120.763L121.492 118.597Z" fill="white"/>
<path d="M390.646 61.3521C398.633 58.9398 407.171 59.0585 415.088 61.6921C419.032 63.0033 422.718 64.9891 425.982 67.5611C429.159 70.0912 431.783 73.2475 433.689 76.8341C435.67 80.6182 436.725 84.8182 436.767 89.0891C436.775 89.5281 436.692 89.9641 436.523 90.3695C436.354 90.7749 436.104 91.1411 435.787 91.4451C435.127 92.0769 434.248 92.4283 433.335 92.4251H421.393C420.574 92.442 419.777 92.1617 419.148 91.6361C418.52 91.1105 418.103 90.3752 417.975 89.5661C417.722 87.518 417.157 85.5206 416.3 83.6431C415.555 82.0321 414.506 80.5801 413.21 79.3671C411.891 78.1714 410.35 77.2459 408.675 76.6431C404.88 75.3862 400.795 75.3008 396.951 76.3981C395.316 76.8418 393.771 77.5703 392.389 78.5501C391.149 79.434 390.12 80.5827 389.379 81.9131C388.628 83.3135 388.257 84.8866 388.304 86.4751C388.265 88.0714 388.743 89.6376 389.665 90.9411C390.749 92.3642 392.1 93.5623 393.642 94.4681C395.474 95.5782 397.418 96.4913 399.442 97.1921C401.565 97.9196 403.703 98.6004 405.856 99.2341C408.246 99.9507 410.613 100.745 412.951 101.617C415.369 102.52 417.729 103.57 420.018 104.763C422.279 105.944 424.437 107.31 426.472 108.848C428.513 110.392 430.344 112.196 431.919 114.213C433.528 116.229 434.81 118.485 435.719 120.899C436.645 123.522 437.106 126.287 437.079 129.069C437.162 133.261 436.048 137.39 433.866 140.97C431.801 144.266 429.058 147.083 425.819 149.236C422.478 151.436 418.797 153.069 414.925 154.07C411.053 155.113 407.061 155.644 403.051 155.65C398.644 155.651 394.261 154.994 390.047 153.702C385.92 152.461 382.031 150.537 378.54 148.01C375.136 145.537 372.273 142.396 370.125 138.778C367.887 134.947 366.673 130.604 366.598 126.168C366.587 125.728 366.667 125.29 366.833 124.882C367 124.475 367.249 124.106 367.565 123.799C368.226 123.159 369.11 122.802 370.03 122.805H381.917C382.734 122.788 383.53 123.066 384.158 123.589C384.786 124.112 385.204 124.844 385.335 125.651C385.599 127.784 386.26 129.848 387.282 131.738C388.214 133.415 389.468 134.891 390.972 136.082C392.534 137.309 394.313 138.233 396.215 138.805C400.348 139.987 404.717 140.072 408.893 139.05C410.591 138.654 412.208 137.968 413.673 137.021C414.974 136.169 416.075 135.045 416.899 133.726C417.704 132.364 418.102 130.8 418.043 129.219C418.116 127.47 417.64 125.741 416.682 124.276C415.62 122.756 414.252 121.476 412.665 120.517C410.8 119.366 408.813 118.425 406.741 117.712C404.381 116.886 402.111 116.142 399.933 115.479C396.569 114.499 393.193 113.219 389.761 111.775C386.268 110.326 382.962 108.461 379.916 106.22C376.898 104.002 374.325 101.234 372.331 98.0631C370.231 94.6179 369.159 90.6449 369.24 86.6111C369.185 82.526 370.239 78.5026 372.29 74.9691C374.254 71.6408 376.888 68.7566 380.025 66.4991C383.248 64.1951 386.839 62.4547 390.645 61.3521H390.646ZM329.696 60.9151C330.412 60.9027 331.115 61.1156 331.703 61.5238C332.292 61.932 332.738 62.5149 332.978 63.1901L361.941 150.216C362.105 150.708 362.144 151.233 362.056 151.743C361.968 152.254 361.756 152.735 361.437 153.144C361.115 153.561 360.703 153.901 360.231 154.137C359.76 154.372 359.241 154.499 358.714 154.506H347.154C346.43 154.519 345.721 154.301 345.129 153.885C344.537 153.469 344.092 152.876 343.858 152.191L337.376 131.969H311.912L305.308 152.204C305.071 152.883 304.627 153.471 304.038 153.884C303.449 154.297 302.745 154.515 302.026 154.506H290.397C289.87 154.499 289.351 154.372 288.88 154.137C288.408 153.901 287.996 153.561 287.674 153.144C287.356 152.735 287.146 152.253 287.06 151.742C286.974 151.231 287.017 150.707 287.184 150.216L316.733 63.1761C316.976 62.5071 317.421 61.9302 318.007 61.5253C318.592 61.1204 319.289 60.9075 320.001 60.9161L329.696 60.9151ZM459.827 60.9161C460.685 60.942 461.5 61.2949 462.107 61.9024C462.713 62.5099 463.064 63.3262 463.088 64.1841V98.3351H493.74V64.1841C493.765 63.2944 494.141 62.4508 494.787 61.8382C495.433 61.2256 496.295 60.8941 497.185 60.9161H508.372C509.23 60.942 510.045 61.2949 510.652 61.9024C511.258 62.5099 511.609 63.3262 511.633 64.1841V151.224C511.608 152.114 511.232 152.957 510.586 153.57C509.94 154.183 509.078 154.514 508.188 154.492H497.001C496.143 154.466 495.328 154.113 494.722 153.505C494.116 152.898 493.765 152.082 493.741 151.224V114.267H463.088V151.224C463.063 152.114 462.687 152.957 462.041 153.57C461.395 154.183 460.533 154.514 459.643 154.492H448.565C447.707 154.466 446.892 154.113 446.286 153.505C445.68 152.898 445.329 152.082 445.305 151.224V64.1841C445.33 63.2944 445.706 62.4508 446.352 61.8382C446.998 61.2256 447.86 60.8941 448.75 60.9161H459.827ZM246.06 60.9021C250.086 60.9401 254.094 61.4471 258.002 62.4141C261.815 63.3341 265.44 64.9048 268.719 67.0571C271.918 69.1768 274.579 72.0115 276.494 75.3371C278.521 79.0262 279.514 83.1943 279.368 87.4011C279.35 92.2841 277.593 97.0009 274.411 100.705C272.974 102.376 271.315 103.842 269.481 105.062L270.353 105.58C272.651 106.995 274.702 108.775 276.426 110.85C278.152 112.918 279.51 115.267 280.443 117.794C281.381 120.461 281.842 123.273 281.805 126.1C281.921 130.36 280.946 134.579 278.973 138.356C277.101 141.843 274.483 144.874 271.306 147.234C268.047 149.627 264.399 151.438 260.522 152.586C256.511 153.802 252.348 154.44 248.157 154.478H218.642C217.784 154.452 216.969 154.099 216.363 153.491C215.757 152.884 215.406 152.068 215.382 151.21V64.1701C215.407 63.2806 215.783 62.4371 216.429 61.8246C217.074 61.212 217.936 60.8803 218.826 60.9021H246.06ZM248.974 113.791H233.996V138.574H248.456C250.415 138.545 252.358 138.215 254.216 137.594C255.932 137.029 257.539 136.177 258.969 135.074C260.263 134.064 261.318 132.781 262.06 131.316C262.838 129.738 263.225 127.995 263.19 126.236C263.266 124.436 262.925 122.642 262.196 120.994C261.526 119.549 260.545 118.271 259.323 117.249C258.002 116.159 256.486 115.328 254.857 114.799C252.956 114.178 250.974 113.839 248.974 113.791ZM324.848 92.4121L317.278 115.752H332.256L324.848 92.4121ZM246.36 76.9021H233.955V98.0501H246.728C248.573 98.0161 250.405 97.7322 252.174 97.2061C253.798 96.7407 255.331 96.0039 256.709 95.0271C257.945 94.1478 258.98 93.0153 259.745 91.7051C260.483 90.3604 260.841 88.8399 260.78 87.3071C260.836 85.693 260.47 84.0922 259.718 82.6631C259.011 81.4173 258.016 80.358 256.818 79.5731C255.409 78.6639 253.851 78.0089 252.215 77.6381C250.296 77.1818 248.332 76.9343 246.36 76.9021ZM292.494 169.416C292.916 169.97 293.23 170.598 293.42 171.268C293.628 171.98 293.734 172.718 293.733 173.46L293.72 175.108C293.72 175.85 293.615 176.588 293.407 177.3C293.219 177.968 292.909 178.596 292.494 179.152C292.088 179.687 291.567 180.125 290.969 180.432C290.301 180.762 289.563 180.926 288.818 180.909C288.117 180.93 287.422 180.781 286.791 180.475C286.16 180.17 285.613 179.715 285.196 179.152C284.786 178.595 284.481 177.967 284.296 177.3C284.093 176.587 283.992 175.849 283.997 175.108V173.46C283.997 172.963 284.042 172.466 284.133 171.976C284.217 171.51 284.35 171.053 284.528 170.615C284.703 170.195 284.928 169.797 285.196 169.43C285.453 169.07 285.766 168.753 286.122 168.49C286.491 168.223 286.9 168.017 287.333 167.877C287.813 167.727 288.315 167.654 288.818 167.66C289.526 167.639 290.229 167.788 290.869 168.093C291.508 168.398 292.065 168.852 292.494 169.416ZM452.754 167.673C453.373 167.669 453.989 167.766 454.578 167.959C455.116 168.137 455.619 168.409 456.062 168.763C456.48 169.101 456.824 169.523 457.07 170.002C457.32 170.496 457.45 171.042 457.45 171.595H455.218C455.191 171.291 455.118 170.992 455 170.71C454.887 170.446 454.72 170.21 454.51 170.015C454.29 169.814 454.03 169.661 453.747 169.566C453.414 169.453 453.064 169.398 452.712 169.403C452.399 169.401 452.087 169.442 451.786 169.525C451.52 169.601 451.271 169.725 451.051 169.893C450.848 170.045 450.68 170.241 450.561 170.465C450.441 170.701 450.38 170.962 450.384 171.227C450.384 171.505 450.47 171.776 450.629 172.003C450.799 172.237 451.011 172.436 451.255 172.589C451.537 172.768 451.839 172.914 452.154 173.025C452.49 173.143 452.844 173.252 453.216 173.352C453.77 173.506 454.312 173.702 454.836 173.937C455.326 174.155 455.785 174.439 456.198 174.781C456.577 175.095 456.891 175.479 457.124 175.911C457.36 176.371 457.477 176.881 457.464 177.396C457.475 177.925 457.344 178.446 457.084 178.907C456.829 179.347 456.48 179.723 456.062 180.01C455.609 180.315 455.107 180.541 454.578 180.677C454.001 180.832 453.406 180.91 452.808 180.909C452.392 180.911 451.977 180.875 451.568 180.8C451.167 180.728 450.775 180.614 450.398 180.46C450.027 180.31 449.675 180.118 449.348 179.888C449.032 179.665 448.748 179.399 448.505 179.098C448.001 178.468 447.726 177.685 447.728 176.878H449.975C449.998 177.233 450.091 177.58 450.248 177.9C450.391 178.182 450.595 178.429 450.847 178.621C451.107 178.82 451.403 178.968 451.718 179.057C452.077 179.159 452.448 179.21 452.821 179.207C453.138 179.21 453.453 179.174 453.761 179.097C454.033 179.03 454.291 178.915 454.523 178.757C454.736 178.613 454.913 178.422 455.041 178.199C455.166 177.955 455.222 177.682 455.204 177.409C455.208 177.128 455.138 176.851 455 176.606C454.855 176.363 454.66 176.154 454.428 175.993C454.158 175.803 453.865 175.647 453.556 175.53C453.196 175.386 452.828 175.264 452.453 175.163C451.915 175.016 451.387 174.834 450.873 174.618C450.387 174.41 449.93 174.14 449.513 173.815C449.115 173.513 448.777 173.139 448.518 172.712C448.258 172.266 448.126 171.757 448.137 171.241C448.129 170.717 448.26 170.2 448.518 169.743C448.771 169.303 449.114 168.923 449.526 168.626C449.972 168.308 450.469 168.068 450.996 167.918C451.567 167.753 452.159 167.67 452.753 167.673H452.754ZM384.354 167.646C384.991 167.637 385.626 167.729 386.234 167.918C386.734 168.091 387.197 168.359 387.596 168.708C387.995 169.059 388.316 169.491 388.536 169.975C388.774 170.5 388.921 171.061 388.971 171.635H386.779C386.731 171.313 386.644 170.997 386.519 170.696C386.409 170.431 386.247 170.19 386.043 169.988C385.838 169.788 385.592 169.635 385.322 169.538C384.997 169.429 384.656 169.379 384.314 169.389C383.886 169.376 383.465 169.49 383.102 169.716C382.756 169.947 382.467 170.255 382.258 170.615C382.018 171.037 381.853 171.498 381.768 171.976C381.661 172.487 381.606 173.007 381.604 173.529V175.135C381.61 175.653 381.669 176.169 381.781 176.675C381.871 177.155 382.046 177.617 382.299 178.035C382.523 178.402 382.831 178.71 383.197 178.935C383.61 179.173 384.082 179.291 384.559 179.275H385.213C385.429 179.251 385.643 179.21 385.853 179.152C386.046 179.095 386.234 179.017 386.411 178.921C386.568 178.835 386.707 178.72 386.819 178.581V176.007H384.369V174.359H389.012L389.08 179.112C388.841 179.382 388.571 179.625 388.276 179.833C387.949 180.063 387.598 180.255 387.228 180.405C386.823 180.569 386.404 180.692 385.975 180.773C385.5 180.865 385.016 180.911 384.532 180.909C383.786 180.925 383.045 180.771 382.367 180.459C381.75 180.169 381.206 179.746 380.773 179.22C380.326 178.673 379.989 178.044 379.779 177.369C379.545 176.629 379.426 175.857 379.425 175.081V173.488C379.42 172.713 379.535 171.941 379.765 171.2C379.97 170.528 380.298 169.9 380.733 169.348C381.165 168.805 381.716 168.368 382.345 168.073C382.973 167.778 383.661 167.632 384.355 167.646H384.354ZM300.215 167.782V176.415C300.219 176.785 300.274 177.151 300.379 177.505C300.464 177.815 300.607 178.105 300.801 178.363C300.986 178.6 301.223 178.791 301.495 178.921C301.798 179.061 302.128 179.131 302.462 179.125C302.804 179.131 303.144 179.061 303.456 178.921C303.736 178.794 303.984 178.602 304.178 178.363C304.378 178.108 304.526 177.816 304.613 177.505C304.717 177.151 304.772 176.785 304.777 176.415V167.782L306.983 167.837V176.47C306.983 177.09 306.868 177.704 306.643 178.28C306.434 178.791 306.123 179.255 305.73 179.643C305.343 180.033 304.88 180.338 304.368 180.541C303.771 180.759 303.139 180.866 302.503 180.855C301.88 180.865 301.261 180.759 300.678 180.541C300.151 180.344 299.672 180.037 299.273 179.64C298.873 179.243 298.563 178.766 298.363 178.24C298.136 177.658 298.021 177.039 298.023 176.415V167.782H300.215ZM484.276 167.864V169.62H477.808V173.256H483.405V174.945H477.822V179.03H484.345V180.76H475.575V167.864H484.276ZM252.446 167.864V169.62H245.979V173.256H251.562V174.945H245.979V179.03H252.501V180.76H243.745V167.864H252.447H252.446ZM347.902 167.864V169.62H341.434V173.256H347.017V174.945H341.434V179.03H347.956V180.76H339.201V167.864H347.902ZM275.214 167.823C275.829 167.827 276.441 167.9 277.039 168.041C277.567 168.16 278.069 168.372 278.523 168.667C278.943 168.942 279.29 169.317 279.531 169.757C279.784 170.239 279.906 170.779 279.885 171.323C279.895 171.916 279.698 172.494 279.327 172.957C278.932 173.43 278.42 173.791 277.842 174.005C278.199 174.098 278.538 174.245 278.85 174.441C279.133 174.618 279.382 174.844 279.585 175.108C279.999 175.641 280.22 176.299 280.212 176.974C280.224 177.535 280.103 178.09 279.858 178.594C279.627 179.055 279.291 179.457 278.878 179.765C278.43 180.09 277.927 180.33 277.393 180.473C276.79 180.643 276.167 180.73 275.541 180.732L270.884 180.718V167.823H275.214ZM399.074 167.837L403.391 180.732H401.091L400.191 177.736H395.956L395.031 180.732H392.716L397.114 167.837H399.074ZM415.619 167.837V169.593H412.692V178.975H415.619V180.732H407.559V178.975H410.431V169.593H407.558V167.837H415.619ZM371.745 167.837L376.062 180.732H373.761L372.916 177.736H368.682L367.756 180.732H365.441L369.839 167.837H371.745ZM505.192 167.823V178.989H511.66V180.719H502.959V167.823H505.192ZM491.575 167.823V178.989H498.043V180.719H489.342V167.823H491.575ZM316.12 167.796C316.769 167.798 317.414 167.885 318.04 168.055C318.589 168.197 319.107 168.441 319.565 168.776C319.989 169.094 320.33 169.51 320.559 169.988C320.806 170.521 320.927 171.103 320.913 171.69C320.919 172.092 320.859 172.492 320.736 172.875C320.621 173.222 320.45 173.549 320.232 173.842C320.013 174.133 319.752 174.39 319.456 174.604C319.143 174.829 318.804 175.016 318.448 175.163L321.322 180.609V180.719H318.939L316.351 175.666H314.077V180.691H311.831V167.796H316.12ZM423.027 167.823L427.425 176.674V167.823H429.685L429.672 180.718H427.425L423.013 171.854V180.718H420.767V167.823H423.027ZM327.545 167.823L331.943 176.674V167.823H334.203V180.718H331.956L327.545 171.854V180.718H325.285V167.823H327.545ZM463.783 167.823V173.27H468.426V167.823H470.605L470.591 180.718H468.426V174.958H463.796V180.718H461.618V167.823H463.783ZM226.003 167.823L225.948 169.58H221.781V180.718H219.561V169.58H215.476V167.823H226.002H226.003ZM231.967 167.823V173.27H236.583V167.823H238.762V180.718H236.582V174.958H231.967V180.718H229.802V167.823H231.967ZM288.817 169.457C288.373 169.442 287.935 169.566 287.565 169.811C287.232 170.047 286.961 170.36 286.775 170.723C286.571 171.125 286.434 171.557 286.367 172.003C286.29 172.481 286.249 172.963 286.244 173.447V175.108C286.252 175.592 286.297 176.075 286.38 176.552C286.45 176.997 286.588 177.428 286.789 177.832C286.973 178.199 287.244 178.517 287.579 178.757C287.949 179.004 288.387 179.127 288.831 179.112C289.28 179.127 289.722 179.003 290.098 178.757C290.438 178.515 290.717 178.199 290.915 177.832C291.128 177.432 291.275 176.999 291.351 176.552C291.435 176.075 291.481 175.592 291.487 175.108L291.473 173.447C291.468 172.963 291.423 172.48 291.337 172.003C291.261 171.556 291.114 171.124 290.901 170.723C290.704 170.359 290.424 170.047 290.084 169.811C289.708 169.566 289.266 169.443 288.818 169.457H288.817ZM275.677 174.863L273.131 174.877V178.962H275.568C275.896 178.961 276.222 178.911 276.535 178.812C276.808 178.722 277.062 178.584 277.285 178.403C277.496 178.234 277.668 178.02 277.788 177.777C277.91 177.517 277.971 177.233 277.965 176.947C277.969 176.649 277.913 176.352 277.802 176.075C277.704 175.826 277.55 175.602 277.352 175.421C277.141 175.238 276.896 175.099 276.631 175.013C276.323 174.914 276.001 174.864 275.677 174.863ZM361.097 174.223V175.925H353.635V174.223H361.097ZM370.819 170.873L369.253 175.925H372.358L370.819 170.873ZM398.094 170.873L396.528 175.925H399.633L398.094 170.873ZM316.134 169.525H314.091L314.077 173.951H316.133C316.479 173.954 316.824 173.904 317.155 173.801C317.447 173.707 317.72 173.559 317.958 173.365C318.184 173.182 318.366 172.949 318.489 172.685C318.619 172.393 318.684 172.077 318.679 171.758C318.685 171.432 318.625 171.108 318.503 170.805C318.391 170.538 318.218 170.301 317.999 170.111C317.764 169.912 317.491 169.764 317.196 169.675C316.85 169.575 316.493 169.525 316.133 169.525H316.134ZM275.255 169.593H273.131V173.256H275.269C275.586 173.256 275.902 173.215 276.209 173.134C276.478 173.064 276.732 172.944 276.957 172.78C277.165 172.629 277.337 172.434 277.461 172.208C277.588 171.969 277.653 171.703 277.651 171.432C277.658 171.145 277.598 170.86 277.475 170.601C277.358 170.371 277.184 170.174 276.971 170.029C276.739 169.874 276.48 169.763 276.208 169.702C275.895 169.633 275.576 169.596 275.255 169.593Z" fill="#2F3A3E"/>
</g>
<defs>
<clipPath id="clip0_526_24">
<rect width="512" height="217" fill="white"/>
</clipPath>
</defs>
</svg>
